<?xml version="1.0" encoding="UTF-8" standalone="no"?>
<!DOCTYPE svg PUBLIC "-//W3C//DTD SVG 1.1//EN" "http://www.w3.org/Graphics/SVG/1.1/DTD/svg11.dtd">
<svg width="100%" height="100%" viewBox="0 0 20 20" version="1.1" xmlns="http://www.w3.org/2000/svg" xmlns:xlink="http://www.w3.org/1999/xlink" xml:space="preserve" xmlns:serif="http://www.serif.com/" style="fill-rule:evenodd;clip-rule:evenodd;stroke-linecap:square;stroke-linejoin:round;stroke-miterlimit:1.5;">
    <path d="M1.815,4.807L9.994,9.503L18.173,4.697L10.017,0.067L1.815,4.807Z" style="fill:rgb(220,224,223);"/>
    <path d="M1.815,4.807L10.017,0.067L18.173,4.697L9.994,9.503L1.815,4.807ZM3.819,4.804L9.989,8.346L16.174,4.712L10.021,1.219L3.819,4.804Z" style="fill:rgb(180,180,180);"/>
    <path d="M1.683,5.689L1.705,14.926L9.642,19.511L9.686,10.252L1.683,5.689Z" style="fill:rgb(220,224,223);"/>
    <path d="M1.683,5.689L9.686,10.252L9.642,19.511L1.705,14.926L1.683,5.689ZM2.687,7.412L2.704,14.348L8.65,17.783L8.683,10.832L2.687,7.412Z" style="fill:rgb(180,180,180);"/>
    <path d="M10.347,10.296L10.369,19.489L18.328,14.948L18.262,5.755L10.347,10.296Z" style="fill:rgb(220,224,223);"/>
    <path d="M10.347,10.296L18.262,5.755L18.328,14.948L10.369,19.489L10.347,10.296ZM11.349,10.875L11.365,17.77L17.324,14.37C17.324,14.37 17.274,7.475 17.274,7.474L11.349,10.875Z" style="fill:rgb(180,180,180);"/>
    <g transform="matrix(1,0,0,1,-1,0)">
        <g transform="matrix(1,0,0,1.27421,-0.994709,-5.80482)">
            <path d="M17.6,15.014L17.6,18.938" style="fill:none;stroke:rgb(18,255,0);stroke-width:1.75px;"/>
        </g>
        <g transform="matrix(6.12323e-17,-1,1.27421,7.80229e-17,-5.0257,33.4262)">
            <path d="M17.6,15.014L17.6,18.938" style="fill:none;stroke:rgb(18,255,0);stroke-width:1.75px;"/>
        </g>
    </g>
</svg>
